<svg id="svg2983" xmlns:rdf="http://www.w3.org/1999/02/22-rdf-syntax-ns#" xmlns="http://www.w3.org/2000/svg" height="34" width="237" version="1.1" xmlns:cc="http://creativecommons.org/ns#" xmlns:dc="http://purl.org/dc/elements/1.1/" viewBox="0 0 237 34">
 <defs id="defs2985">
  <clipPath id="a">
   <path id="path2988" d="m0 768h1024v-768h-1024v768z"/>
  </clipPath>
 </defs>
 <metadata id="metadata2990">
  <rdf:RDF>
   <cc:Work rdf:about="">
    <dc:format>image/svg+xml</dc:format>
    <dc:type rdf:resource="http://purl.org/dc/dcmitype/StillImage"/>
    <dc:title/>
   </cc:Work>
  </rdf:RDF>
 </metadata>
 <g id="g2992" transform="matrix(.29656 0 0 .29656 19 -90.618)">
  <g id="g2994" transform="matrix(1.25,0,0,-1.25,-491,265)">
   <g id="g2996" transform="matrix(.65199 0 0 .65199 -50 -345)">
    <g id="g2998" clip-path="url(#a)">
     <g id="g3000" transform="translate(647,416)">
      <path id="path3002" d="m-0.94836-0.26588-24.825-8.9856c0.30916-3.9591 0.97527-7.8702 1.9131-11.702l22.912 8.5416c-0.040285 3.9658-0.30542 8.0525 0 12.146" fill="#db212f"/>
     </g>
     <g id="g3004" transform="translate(760,445)">
      <path id="path3006" d="m1.9012-0.30348c-1.8565 5.0587-4.0036 8.8451-6.4907 12.412l-26.61-9.909c3.097-3.2406 5.6938-6.8831 7.8191-10.778l25.282 8.2745z" fill="#db212f"/>
     </g>
     <g id="g3008" transform="translate(704,452)">
      <path id="path3010" d="m-2.1822-3.166c5.3217-1.7936 9.9319-5.2996 13.819-9.411l25.577 9.6366c-7.084 10.289-16.734 18.888-28.56 24.599-36.561 17.647-80.185 1.213-97.233-36.627-5.5174-12.246-7.5682-25.255-6.6064-37.848l25.58 9.6346c0.42426 5.7367 1.7775 11.485 4.2566 16.996 11.08 23.813 39.415 34.482 63.168 23.019" fill="#db212f"/>
     </g>
     <g id="g3012" transform="translate(624,395)">
      <path id="path3014" d="m1.3642 0.046697-24.825-8.7139c2.2509-8.7227 6.1548-17.01 11.518-24.386l25.72 9.1462c-6.27 6.623-10.66 15.001-12.413 23.954" fill="#ea2227"/>
     </g>
     <g id="g3016" transform="translate(731,405)">
      <path id="path3018" d="m1.9388 2.4592c-1.1125-6.2221-2.513-11.654-4.9998-16.864-11.084-23.228-39.428-33.307-63.191-22.476-5.3306 2.4296-9.9744 5.7151-13.851 9.6058l-25.533-9.085c7.071-9.7204 16.715-17.845 28.548-23.243 36.578-16.666 80.21-1.1434 97.267 34.602 5.5224 11.565 7.5621 23.848 6.585 35.735l-25.521-8.2748z" fill="#db212f"/>
     </g>
     <g id="g3020" transform="translate(738,436)">
      <path id="path3022" d="m-0.92368 0.42155-24.825-9.2498c4.7475-8.4561 6.9891-18.195 6.2555-27.988l26.844 9.7091c-1.502 9.578-4.0717 18.927-8.2737 27.529" fill="#ea2227"/>
     </g>
    </g>
   </g>
   <g id="g3024" fill="#fff" transform="matrix(1.8829,0,0,1.8829,-695,-201)">
    <g id="g3026" transform="scale(1,-1)">
     <path id="path3028" d="m657.96-66.045q-0.006-3.2086-1.0735-6.2208-1.0215-3.0578-2.9252-5.1572-1.8572-2.145-4.5038-3.2404-2.6002-1.141-5.7575-1.141-3.2037 0-5.8503 1.141t-4.5503 3.286q-1.9036 2.0994-2.9716 5.1572-1.0215 3.0578-1.0215 6.9372t1.0215 6.9372q1.068 3.0122 2.9252 5.1572 1.9036 2.0994 4.5038 3.2404 2.6466 1.0954 5.8503 1.0954 3.1573 0 5.8039-1.141t4.5503-3.2404q1.9036-2.145 2.9252-5.2029 1.07-3.059 1.07-6.938zm-6.6916 0.762q0 4.8834-2.0894 7.4849-2.043 2.6015-5.4789 2.6015t-5.5717-2.6471-2.1358-7.5305 2.043-7.4849q2.0894-2.6015 5.5253-2.6015t5.5717 2.6471q2.14 2.647 2.14 7.53z"/>
     <path id="path3030" d="m689.48-70.343q0-2.5544-0.846-4.4004-0.84599-1.8911-2.3154-3.1519-1.4694-1.2607-3.4285-1.8461-1.9592-0.63037-4.1409-0.63037h-13.625v31.519h5.7307v-11.461h7.3599q2.4044 0.29482 4.4526-0.29053 2.0927-0.58535 3.6066-1.8461 1.5139-1.2607 2.3599-3.1969 0.82-1.981 0.82-4.728zm-6.4117 0.10226q0 4.1958-4.4526 4.1958h-7.7606v-8.5961h7.6716q2.0927 0.39299 3.2949 1.3836 1.24 0.946 1.24 3.017z"/>
     <path id="path3032" d="m720.99-48.853v-5.7307h-17.192v-8.5961h10.029v-5.7307h-10.029v-5.7307h17.192v-5.7307h-22.923v31.519l22.92 0.001z"/>
     <path id="path3034" d="m755.38-48.853v-31.519h-5.7307v13.328q0 0.67539 0 1.666 0 0.99058 0 2.0262 0 0.99058 0 1.8911-0.45742 0.8555-0.45742 1.3057-0.31834-0.63036-1.0005-1.621-0.63666-1.0356-1.2278-1.9362l-11.278-16.66h-6.0938v31.519h5.7307v-13.869q0.0455-0.67539 0-1.666 0-0.99058 0-1.9812 0.0455-1.0357 0-1.8911 0-0.90053 0-1.3508 0.77237 0.63036 1.409 1.666 0.68214 0.99058 1.2733 1.8911l11.69 17.201h5.69z"/>
    </g>
    <g id="g3036" transform="scale(1,-1)">
     <path id="path3038" d="m785.46-57.449q-0.004-2.0836-0.46374-3.4529-0.4601-1.3692-1.5643-2.5101-1.0583-1.141-2.8527-2.0994-1.7944-0.95843-4.463-1.9168-2.4385-0.86715-3.9569-1.5974-1.4723-0.73023-2.3006-1.4605-0.82819-0.77587-1.1043-1.5517-0.27606-0.82151-0.27606-1.8256 0-0.95843 0.32208-1.7799 0.36808-0.86715 1.1043-1.5061 0.78218-0.63895 1.9785-1.0041 1.1963-0.41076 2.8527-0.41076 2.4385 0 4.187 0.77587 1.7944 0.73023 3.5428 2.1907l2.3006-2.784q-2.0245-1.5974-4.3249-2.5101-2.2546-0.91278-5.4752-0.91278-2.2544 0-4.141 0.54767-1.8404 0.54767-3.1747 1.643-1.2883 1.0498-2.0245 2.5559-0.73617 1.5061-0.73617 3.4229 0 1.7343 0.4601 3.0578 0.50612 1.3235 1.5643 2.4189 1.1043 1.0498 2.8527 2.0082 1.7944 0.91278 4.417 1.8256 2.2085 0.77587 3.6808 1.5517 1.4724 0.73023 2.3466 1.5061 0.92022 0.77587 1.2883 1.6887 0.36808 0.91278 0.36808 2.0082 0 2.5559-1.8864 4.0162-1.8404 1.4605-5.0612 1.4605-2.4845 0-4.601-1.0498t-3.9569-2.784l-2.3925 2.6471q1.9324 1.9168 4.6931 3.1948 2.8066 1.2323 6.1193 1.2323 2.5305 0 4.509-0.68459 1.9784-0.68459 3.3587-1.8712 1.3804-1.1866 2.0705-2.8296 0.74-1.641 0.74-3.512z"/>
     <path id="path3040" d="m816.98-48.853v-31.519h-2.8654v12.894h-17.192v-12.894h-2.8654v31.519h2.8654v-14.327h17.192v14.327h2.87z"/>
     <path id="path3042" d="m831.31-48.853v-31.519h-2.8654v31.519h2.87z"/>
     <path id="path3044" d="m861.4-77.507v-2.8654h-18.625v31.519h2.8654v-14.327h10.029v-2.8654h-10.029v-11.461l15.75-0.003z"/>
     <path id="path3046" d="m890.05-77.507v-2.8654h-22.923v2.8654h10.029v28.654h2.8654v-28.654h10.02z"/>
    </g>
   </g>
  </g>
 </g>
</svg>