<?xml version="1.0" encoding="UTF-8" standalone="no"?>
<!-- Generator: Adobe Illustrator 16.0.0, SVG Export Plug-In . SVG Version: 6.00 Build 0)  -->
<svg id="Layer_1" xmlns:rdf="http://www.w3.org/1999/02/22-rdf-syntax-ns#" xmlns="http://www.w3.org/2000/svg" xml:space="preserve" height="245.74px" viewBox="0 0 247.526 245.736" width="247.53px" version="1.2" y="0px" x="0px" xmlns:cc="http://creativecommons.org/ns#" xmlns:dc="http://purl.org/dc/elements/1.1/"><metadata id="metadata3022"><rdf:RDF><cc:Work rdf:about=""><dc:format>image/svg+xml</dc:format><dc:type rdf:resource="http://purl.org/dc/dcmitype/StillImage"/><dc:title/></cc:Work></rdf:RDF></metadata>
<g id="g3921">
	<g id="g3927" transform="translate(304.9634,416.0308)">
		<path id="path3929" d="M-227.87-333.48l-32.185,11.711c0.412,5.16,1.301,10.257,2.553,15.251l30.569-11.133c-0.98-5.17-1.34-10.5-0.93-15.83" fill="#C32035"/>
	</g>
	<g id="g3931" transform="translate(418.7466,444.5015)">
		<path id="path3933" d="M-199.42-397.54c-2.244-4.63-4.842-9.105-7.849-13.321l-32.177,11.711c3.744,3.83,6.885,8.135,9.454,12.739l30.58-11.13z" fill="#C32035"/>
	</g>
	<g id="g3935" transform="translate(362.1055,451.793)">
		<path id="path3937" d="M-213.58-413.95c6.695,3.124,12.494,7.385,17.384,12.383l32.178-11.713c-8.913-12.506-21.053-22.958-35.929-29.898-45.996-21.449-100.88-1.475-122.33,44.516-6.941,14.884-9.521,30.695-8.311,46.001l32.182-11.71c0.533-6.972,2.236-13.958,5.354-20.657,13.95-29.88,49.59-42.85,79.48-28.92" fill="#DB242F"/>
	</g>
	<g id="g3939" transform="translate(282.8599,395.0469)">
		<path id="path3941" d="M-233.39-286.27l-30.575,11.136c2.81,11.147,7.682,21.739,14.378,31.166l32.109-11.689c-8.25-8.47-13.74-19.18-15.92-30.62" fill="#E92629"/>
	</g>
	<g id="g3943" transform="translate(389.5596,404.7539)">
		<path id="path3945" d="M-206.72-308.11c-0.511,6.969-2.271,13.959-5.398,20.663-13.938,29.888-49.585,42.856-79.468,28.92-6.703-3.126-12.543-7.354-17.42-12.36l-32.108,11.69c8.892,12.507,21.02,22.961,35.901,29.908,45.999,21.445,100.87,1.471,122.32-44.524,6.946-14.881,9.51-30.686,8.282-45.981l-32.1,11.68z" fill="#DB242F"/>
	</g>
	<g id="g3947" transform="translate(395.8906,436.1816)">
		<path id="path3949" d="M-205.14-378.82l-30.572,11.129c5.678,10.174,8.361,21.891,7.482,33.672l32.11-11.681c-0.92-11.52-3.99-22.77-9.02-33.12" fill="#E92629"/>
	</g>
	<g id="g3951" transform="translate(279.2158,406.6621)">
		<path id="path3953" d="M-234.31-312.4l32.105-11.579-0.132,6.35-30.975,11.516-1.01-6.29z" fill="#AD233B"/>
	</g>
	<g id="g3955" transform="translate(386.7266,445.8594)">
		<path id="path3957" d="M-207.43-400.6l32.606-11.018,3.39,5.035-31.681,11.026-4.32-5.05z" fill="#AD233B"/>
	</g>
	<g id="g3959" transform="translate(282.0435,365.709)">
		<path id="path3961" d="M-233.6-220.26l32.145-11.516,9.722,9.031-33.709,12.459-8.15-9.97z" fill="#BA2235"/>
	</g>
	<g id="g3963" transform="translate(415.6782,414.0278)">
		<path id="path3965" d="M-200.19-328.98l-32.648,11.593-2.405,12.866,34.811-12.214,0.24-12.25z" fill="#BA2235"/>
	</g>
</g>
<g id="text3967" fill="#FFF" transform="scale(1,-1)">
	<path id="path10194" d="M26.455-230.22c0,2.43-0.329,4.588-0.986,6.475-0.629,1.915-1.529,3.53-2.701,4.846-1.144,1.343-2.529,2.357-4.159,3.044-1.601,0.715-3.373,1.071-5.316,1.071-1.973,0-3.773-0.356-5.402-1.071-1.63-0.715-3.03-1.744-4.202-3.087-1.172-1.315-2.087-2.93-2.744-4.846-0.631-1.91-0.945-4.08-0.945-6.51s0.314-4.603,0.943-6.518c0.657-1.887,1.558-3.502,2.701-4.845,1.172-1.315,2.559-2.33,4.159-3.045,1.629-0.686,3.43-1.028,5.402-1.028,1.943,0,3.73,0.357,5.359,1.071,1.63,0.715,3.03,1.729,4.202,3.045,1.172,1.343,2.072,2.973,2.701,4.888,0.659,1.91,0.988,4.08,0.988,6.51zm-6.175-0.08c0-3.059-0.643-5.402-1.929-7.032-1.258-1.629-2.944-2.443-5.06-2.443s-3.83,0.828-5.146,2.486c-1.314,1.658-1.973,4.017-1.973,7.074,0,3.059,0.629,5.403,1.887,7.032,1.287,1.629,2.987,2.444,5.103,2.444s3.83-0.829,5.146-2.487c1.315-1.65,1.972-4.01,1.972-7.07z"/>
	<path id="path10196" d="M57.926-224.77c0,1.602-0.271,2.987-0.814,4.159-0.543,1.201-1.286,2.201-2.229,3.002-0.943,0.8-2.044,1.386-3.302,1.758-1.258,0.4-2.587,0.601-3.987,0.601h-13.12v-30.014h6.003v10.633h6.603c1.544,0,2.973,0.186,4.288,0.558,1.344,0.372,2.501,0.958,3.473,1.758,0.972,0.801,1.729,1.815,2.272,3.044,0.541,1.25,0.813,2.76,0.813,4.5zm-6.174-0.13c0-2.602-1.429-3.902-4.287-3.902h-6.989v7.718h6.903c1.343,0,2.4-0.314,3.173-0.943,0.8-0.61,1.2-1.56,1.2-2.88z"/>
	<path id="path10198" d="M87.082-245.26v5.874h-15.478v7.246h8.618v5.831h-8.618v5.188h14.836v5.875h-20.838v-30.014h21.48z"/>
	<path id="path10200" d="M119.75-245.26v30.014h-5.917v-12.692-1.586c0.028-0.629,0.043-1.272,0.043-1.93v-1.801c0.028-0.543,0.043-0.957,0.043-1.243-0.2,0.4-0.515,0.915-0.943,1.543-0.4,0.658-0.786,1.272-1.157,1.844l-10.634,15.864h-5.745v-30.013h5.917v13.205c0,0.43-0.015,0.958-0.043,1.587v1.887c0,0.657-0.015,1.258-0.043,1.801v1.286c0.2-0.4,0.5-0.929,0.9-1.586,0.429-0.629,0.829-1.229,1.2-1.801l11.02-16.379h5.364z"/>
</g>
<g id="text3971" fill="#FFF" transform="scale(1,-1)">
	<path id="path10183" d="M149.6-236.65c0,1.343-0.229,2.486-0.686,3.43-0.429,0.943-1.058,1.758-1.887,2.444s-1.844,1.271-3.044,1.758c-1.172,0.485-2.501,0.957-3.987,1.415-1.287,0.371-2.358,0.729-3.216,1.071-0.857,0.344-1.529,0.687-2.016,1.029-0.485,0.372-0.829,0.758-1.029,1.158-0.2,0.429-0.3,0.9-0.3,1.414,0,1.001,0.386,1.873,1.158,2.616,0.8,0.743,2.086,1.114,3.858,1.114,1.486,0,2.787-0.243,3.901-0.729,1.115-0.458,2.145-1.172,3.088-2.145l3.173,3.216c-1.344,1.287-2.802,2.287-4.374,3.002s-3.387,1.071-5.445,1.071c-1.372,0-2.673-0.199-3.901-0.6-1.201-0.372-2.244-0.915-3.13-1.63-0.887-0.714-1.587-1.601-2.102-2.658-0.514-1.028-0.771-2.187-0.771-3.473,0-1.344,0.186-2.473,0.558-3.388,0.4-0.914,0.986-1.7,1.758-2.357,0.771-0.629,1.743-1.187,2.915-1.673,1.173-0.485,2.559-0.957,4.159-1.415,1.258-0.371,2.315-0.729,3.173-1.071,0.857-0.344,1.559-0.715,2.102-1.115,0.543-0.371,0.929-0.786,1.157-1.243s0.343-0.972,0.343-1.544c0-2.915-2.072-4.373-6.217-4.373-1.429,0-2.844,0.314-4.245,0.943-1.372,0.657-2.558,1.529-3.559,2.615l-3.216-3.13c1.287-1.486,2.83-2.673,4.631-3.559,1.829-0.857,3.845-1.286,6.046-1.286,1.915,0,3.573,0.214,4.974,0.643,1.4,0.458,2.544,1.087,3.43,1.887,0.915,0.801,1.587,1.758,2.016,2.873,0.47,1.12,0.7,2.35,0.7,3.69z"/>
	<path id="path10185" d="M179.65-245.26v30.014h-4.502v-12.135h-13.806v12.135h-4.502v-30.014h4.502v13.377h13.806v-13.377h4.502z"/>
	<path id="path10187" d="M193.03-245.26v30.014h-4.502v-30.014h4.5z"/>
	<path id="path10189" d="M221.29-219.67v4.417h-19.338v-30.014h4.502v13.334h8.618v4.416h-8.618v7.847h14.836z"/>
	<path id="path10191" d="M247.53-219.67v4.417h-22v-4.417h8.747v-25.597h4.502v25.597h8.746z"/>
</g>
<style xmlns="http://www.w3.org/1999/xhtml" charset="utf-8" type="text/css">/* See license.txt for terms of usage */
/** reset styling **/
.firebugResetStyles {
    z-index: 2147483646 !important;
    top: 0 !important;
    left: 0 !important;
    display: block !important;
    border: 0 none !important;
    margin: 0 !important;
    padding: 0 !important;
    outline: 0 !important;
    min-width: 0 !important;
    max-width: none !important;
    min-height: 0 !important;
    max-height: none !important;
    position: fixed !important;
    transform: rotate(0deg) !important;
    transform-origin: 50% 50% !important;
    border-radius: 0 !important;
    box-shadow: none !important;
    background: transparent none !important;
    pointer-events: none !important;
    white-space: normal !important;
}

.firebugBlockBackgroundColor {
    background-color: transparent !important;
}

.firebugResetStyles:before, .firebugResetStyles:after {
    content: "" !important;
}
/**actual styling to be modified by firebug theme**/
.firebugCanvas {
    display: none !important;
}

/* * * * * * * * * * * * * * * * * * * * * * * * * * * * * * * * * * * * * * * * * * * * * * * * */
.firebugLayoutBox {
    width: auto !important;
    position: static !important;
}

.firebugLayoutBoxOffset {
    opacity: 0.8 !important;
    position: fixed !important;
}

.firebugLayoutLine {
    opacity: 0.4 !important;
    background-color: #000000 !important;
}

.firebugLayoutLineLeft, .firebugLayoutLineRight {
    width: 1px !important;
    height: 100% !important;
}

.firebugLayoutLineTop, .firebugLayoutLineBottom {
    width: 100% !important;
    height: 1px !important;
}

.firebugLayoutLineTop {
    margin-top: -1px !important;
    border-top: 1px solid #999999 !important;
}

.firebugLayoutLineRight {
    border-right: 1px solid #999999 !important;
}

.firebugLayoutLineBottom {
    border-bottom: 1px solid #999999 !important;
}

.firebugLayoutLineLeft {
    margin-left: -1px !important;
    border-left: 1px solid #999999 !important;
}

/* * * * * * * * * * * * * * * * * * * * * * * * * * * * * * * * * * * * * * * * * * * * * * * * */
.firebugLayoutBoxParent {
    border-top: 0 none !important;
    border-right: 1px dashed #E00 !important;
    border-bottom: 1px dashed #E00 !important;
    border-left: 0 none !important;
    position: fixed !important;
    width: auto !important;
}

.firebugRuler{
    position: absolute !important;
}

.firebugRulerH {
    top: -15px !important;
    left: 0 !important;
    width: 100% !important;
    height: 14px !important;
    background: url("data:image/png,%89PNG%0D%0A%1A%0A%00%00%00%0DIHDR%00%00%13%88%00%00%00%0E%08%02%00%00%00L%25a%0A%00%00%00%04gAMA%00%00%D6%D8%D4OX2%00%00%00%19tEXtSoftware%00Adobe%20ImageReadyq%C9e%3C%00%00%04%F8IDATx%DA%EC%DD%D1n%E2%3A%00E%D1%80%F8%FF%EF%E2%AF2%95%D0D4%0E%C1%14%B0%8Fa-%E9%3E%CC%9C%87n%B9%81%A6W0%1C%A6i%9A%E7y%0As8%1CT%A9R%A5J%95*U%AAT%A9R%A5J%95*U%AAT%A9R%A5J%95*U%AAT%A9R%A5J%95*U%AAT%A9R%A5J%95*U%AAT%A9R%A5J%95*U%AAT%A9R%A5J%95*U%AATE9%FE%FCw%3E%9F%AF%2B%2F%BA%97%FDT%1D~K(%5C%9D%D5%EA%1B%5C%86%B5%A9%BDU%B5y%80%ED%AB*%03%FAV9%AB%E1%CEj%E7%82%EF%FB%18%BC%AEJ8%AB%FA'%D2%BEU9%D7U%ECc0%E1%A2r%5DynwVi%CFW%7F%BB%17%7Dy%EACU%CD%0E%F0%FA%3BX%FEbV%FEM%9B%2B%AD%BE%AA%E5%95v%AB%AA%E3E5%DCu%15rV9%07%B5%7F%B5w%FCm%BA%BE%AA%FBY%3D%14%F0%EE%C7%60%0EU%AAT%A9R%A5J%95*U%AAT%A9R%A5J%95*U%AAT%A9R%A5J%95*U%AAT%A9R%A5J%95*U%AAT%A9R%A5JU%88%D3%F5%1F%AE%DF%3B%1B%F2%3E%DAUCNa%F92%D02%AC%7Dm%F9%3A%D4%F2%8B6%AE*%BF%5C%C2Ym~9g5%D0Y%95%17%7C%C8c%B0%7C%18%26%9CU%CD%13i%F7%AA%90%B3Z%7D%95%B4%C7%60%E6E%B5%BC%05%B4%FBY%95U%9E%DB%FD%1C%FC%E0%9F%83%7F%BE%17%7DkjMU%E3%03%AC%7CWj%DF%83%9An%BCG%AE%F1%95%96yQ%0Dq%5Dy%00%3Et%B5'%FC6%5DS%95pV%95%01%81%FF'%07%00%00%00%00%00%00%00%00%00%F8x%C7%F0%BE%9COp%5D%C9%7C%AD%E7%E6%EBV%FB%1E%E0(%07%E5%AC%C6%3A%ABi%9C%8F%C6%0E9%AB%C0'%D2%8E%9F%F99%D0E%B5%99%14%F5%0D%CD%7F%24%C6%DEH%B8%E9rV%DFs%DB%D0%F7%00k%FE%1D%84%84%83J%B8%E3%BA%FB%EF%20%84%1C%D7%AD%B0%8E%D7U%C8Y%05%1E%D4t%EF%AD%95Q%BF8w%BF%E9%0A%BF%EB%03%00%00%00%00%00%00%00%00%00%B8vJ%8E%BB%F5%B1u%8Cx%80%E1o%5E%CA9%AB%CB%CB%8E%03%DF%1D%B7T%25%9C%D5(%EFJM8%AB%CC'%D2%B2*%A4s%E7c6%FB%3E%FA%A2%1E%80~%0E%3E%DA%10x%5D%95Uig%15u%15%ED%7C%14%B6%87%A1%3B%FCo8%A8%D8o%D3%ADO%01%EDx%83%1A~%1B%9FpP%A3%DC%C6'%9C%95gK%00%00%00%00%00%00%00%00%00%20%D9%C9%11%D0%C0%40%AF%3F%EE%EE%92%94%D6%16X%B5%BCMH%15%2F%BF%D4%A7%C87%F1%8E%F2%81%AE%AAvzr%DA2%ABV%17%7C%E63%83%E7I%DC%C6%0Bs%1B%EF6%1E%00%00%00%00%00%00%00%00%00%80cr%9CW%FF%7F%C6%01%0E%F1%CE%A5%84%B3%CA%BC%E0%CB%AA%84%CE%F9%BF)%EC%13%08WU%AE%AB%B1%AE%2BO%EC%8E%CBYe%FE%8CN%ABr%5Dy%60~%CFA%0D%F4%AE%D4%BE%C75%CA%EDVB%EA(%B7%F1%09g%E5%D9%12%00%00%00%00%00%00%00%00%00H%F6%EB%13S%E7y%5E%5E%FB%98%F0%22%D1%B2'%A7%F0%92%B1%BC%24z3%AC%7Dm%60%D5%92%B4%7CEUO%5E%F0%AA*%3BU%B9%AE%3E%A0j%94%07%A0%C7%A0%AB%FD%B5%3F%A0%F7%03T%3Dy%D7%F7%D6%D4%C0%AAU%D2%E6%DFt%3F%A8%CC%AA%F2%86%B9%D7%F5%1F%18%E6%01%F8%CC%D5%9E%F0%F3z%88%AA%90%EF%20%00%00%00%00%00%00%00%00%00%C0%A6%D3%EA%CFi%AFb%2C%7BB%0A%2B%C3%1A%D7%06V%D5%07%A8r%5D%3D%D9%A6%CAu%F5%25%CF%A2%99%97zNX%60%95%AB%5DUZ%D5%FBR%03%AB%1C%D4k%9F%3F%BB%5C%FF%81a%AE%AB'%7F%F3%EA%FE%F3z%94%AA%D8%DF%5B%01%00%00%00%00%00%00%00%00%00%8E%FB%F3%F2%B1%1B%8DWU%AAT%A9R%A5J%95*U%AAT%A9R%A5J%95*U%AAT%A9R%A5J%95*U%AAT%A9R%A5J%95*U%AAT%A9R%A5J%95*U%AAT%A9R%A5J%95*U%AAT%A9R%A5J%95*UiU%C7%BBe%E7%F3%B9%CB%AAJ%95*U%AAT%A9R%A5J%95*U%AAT%A9R%A5J%95*U%AAT%A9R%A5J%95*U%AAT%A9R%A5J%95*U%AAT%A9R%A5J%95*U%AAT%A9R%A5J%95*U%AAT%A9R%A5*%AAj%FD%C6%D4%5Eo%90%B5Z%ADV%AB%D5j%B5Z%ADV%AB%D5j%B5Z%ADV%AB%D5j%B5Z%ADV%AB%D5j%B5Z%ADV%AB%D5j%B5Z%ADV%AB%D5j%B5Z%ADV%AB%D5j%B5%86%AF%1B%9F%98%DA%EBm%BBV%AB%D5j%B5Z%ADV%AB%D5j%B5Z%ADV%AB%D5j%B5Z%ADV%AB%D5j%B5Z%ADV%AB%D5j%B5Z%ADV%AB%D5j%B5Z%ADV%AB%D5j%B5Z%AD%D6%E4%F58%01%00%00%00%00%00%00%00%00%00%00%00%00%00%40%85%7F%02%0C%008%C2%D0H%16j%8FX%00%00%00%00IEND%AEB%60%82") repeat-x !important;
    border-top: 1px solid #BBBBBB !important;
    border-right: 1px dashed #BBBBBB !important;
    border-bottom: 1px solid #000000 !important;
}

.firebugRulerV {
    top: 0 !important;
    left: -15px !important;
    width: 14px !important;
    height: 100% !important;
    background: url("data:image/png,%89PNG%0D%0A%1A%0A%00%00%00%0DIHDR%00%00%00%0E%00%00%13%88%08%02%00%00%00%0E%F5%CB%10%00%00%00%04gAMA%00%00%D6%D8%D4OX2%00%00%00%19tEXtSoftware%00Adobe%20ImageReadyq%C9e%3C%00%00%06~IDATx%DA%EC%DD%D1v%A20%14%40Qt%F1%FF%FF%E4%97%D9%07%3BT%19%92%DC%40(%90%EEy%9A5%CB%B6%E8%F6%9Ac%A4%CC0%84%FF%DC%9E%CF%E7%E3%F1%88%DE4%F8%5D%C7%9F%2F%BA%DD%5E%7FI%7D%F18%DDn%BA%C5%FB%DF%97%BFk%F2%10%FF%FD%B4%F2M%A7%FB%FD%FD%B3%22%07p%8F%3F%AE%E3%F4S%8A%8F%40%EEq%9D%BE8D%F0%0EY%A1Uq%B7%EA%1F%81%88V%E8X%3F%B4%CEy%B7h%D1%A2E%EBohU%FC%D9%AF2fO%8BBeD%BE%F7X%0C%97%A4%D6b7%2Ck%A5%12%E3%9B%60v%B7r%C7%1AI%8C%BD%2B%23r%00c0%B2v%9B%AD%CA%26%0C%1Ek%05A%FD%93%D0%2B%A1u%8B%16-%95q%5Ce%DCSO%8E%E4M%23%8B%F7%C2%FE%40%BB%BD%8C%FC%8A%B5V%EBu%40%F9%3B%A72%FA%AE%8C%D4%01%CC%B5%DA%13%9CB%AB%E2I%18%24%B0n%A9%0CZ*Ce%9C%A22%8E%D8NJ%1E%EB%FF%8F%AE%CAP%19*%C3%BAEKe%AC%D1%AAX%8C*%DEH%8F%C5W%A1e%AD%D4%B7%5C%5B%19%C5%DB%0D%EF%9F%19%1D%7B%5E%86%BD%0C%95%A12%AC%5B*%83%96%CAP%19%F62T%86%CAP%19*%83%96%CA%B8Xe%BC%FE)T%19%A1%17xg%7F%DA%CBP%19*%C3%BA%A52T%86%CAP%19%F62T%86%CA%B0n%A9%0CZ%1DV%C6%3D%F3%FCH%DE%B4%B8~%7F%5CZc%F1%D6%1F%AF%84%F9%0F6%E6%EBVt9%0E~%BEr%AF%23%B0%97%A12T%86%CAP%19%B4T%86%CA%B8Re%D8%CBP%19*%C3%BA%A52huX%19%AE%CA%E5%BC%0C%7B%19*CeX%B7h%A9%0C%95%E1%BC%0C%7B%19*CeX%B7T%06%AD%CB%5E%95%2B%BF.%8F%C5%97%D5%E4%7B%EE%82%D6%FB%CF-%9C%FD%B9%CF%3By%7B%19%F62T%86%CA%B0n%D1R%19*%A3%D3%CA%B0%97%A12T%86uKe%D0%EA%B02*%3F1%99%5DB%2B%A4%B5%F8%3A%7C%BA%2B%8Co%7D%5C%EDe%A8%0C%95a%DDR%19%B4T%C66%82fA%B2%ED%DA%9FC%FC%17GZ%06%C9%E1%B3%E5%2C%1A%9FoiB%EB%96%CA%A0%D5qe4%7B%7D%FD%85%F7%5B%ED_%E0s%07%F0k%951%ECr%0D%B5C%D7-g%D1%A8%0C%EB%96%CA%A0%A52T%C6)*%C3%5E%86%CAP%19%D6-%95A%EB*%95q%F8%BB%E3%F9%AB%F6%E21%ACZ%B7%22%B7%9B%3F%02%85%CB%A2%5B%B7%BA%5E%B7%9C%97%E1%BC%0C%EB%16-%95%A12z%AC%0C%BFc%A22T%86uKe%D0%EA%B02V%DD%AD%8A%2B%8CWhe%5E%AF%CF%F5%3B%26%CE%CBh%5C%19%CE%CB%B0%F3%A4%095%A1%CAP%19*Ce%A8%0C%3BO*Ce%A8%0C%95%A12%3A%AD%8C%0A%82%7B%F0v%1F%2FD%A9%5B%9F%EE%EA%26%AF%03%CA%DF9%7B%19*Ce%A8%0C%95%A12T%86%CA%B8Ze%D8%CBP%19*Ce%A8%0C%95%D1ae%EC%F7%89I%E1%B4%D7M%D7P%8BjU%5C%BB%3E%F2%20%D8%CBP%19*Ce%A8%0C%95%A12T%C6%D5*%C3%5E%86%CAP%19*Ce%B4O%07%7B%F0W%7Bw%1C%7C%1A%8C%B3%3B%D1%EE%AA%5C%D6-%EBV%83%80%5E%D0%CA%10%5CU%2BD%E07YU%86%CAP%19*%E3%9A%95%91%D9%A0%C8%AD%5B%EDv%9E%82%FFKOee%E4%8FUe%A8%0C%95%A12T%C6%1F%A9%8C%C8%3D%5B%A5%15%FD%14%22r%E7B%9F%17l%F8%BF%ED%EAf%2B%7F%CF%ECe%D8%CBP%19*Ce%A8%0C%95%E1%93~%7B%19%F62T%86%CAP%19*Ce%A8%0C%E7%13%DA%CBP%19*Ce%A8%0CZf%8B%16-Z%B4h%D1R%19f%8B%16-Z%B4h%D1R%19%B4%CC%16-Z%B4h%D1R%19%B4%CC%16-Z%B4h%D1%A2%A52%CC%16-Z%B4h%D1%A2%A52h%99-Z%B4h%D1%A2%A52h%99-Z%B4h%D1%A2EKe%98-Z%B4h%D1%A2EKe%D02%5B%B4h%D1%A2EKe%D02%5B%B4h%D1%A2E%8B%96%CA0%5B%B4h%D1%A2E%8B%96%CA%A0e%B6h%D1%A2E%8B%96%CA%A0e%B6h%D1%A2E%8B%16-%95a%B6h%D1%A2E%8B%16-%95A%CBl%D1%A2E%8B%16-%95A%CBl%D1%A2E%8B%16-Z*%C3l%D1%A2E%8B%16-Z*%83%96%D9%A2E%8B%16-Z*%83%96%D9%A2E%8B%16-Z%B4T%86%D9%A2E%8B%16-Z%B4T%06-%B3E%8B%16-Z%B4T%06-%B3E%8B%16-Z%B4h%A9%0C%B3E%8B%16-Z%B4h%A9%0CZf%8B%16-Z%B4h%A9%0CZf%8B%16-Z%B4h%D1R%19f%8B%16-Z%B4h%D1R%19%B4%CC%16-Z%B4h%D1R%19%B4%CC%16-Z%B4h%D1%A2%A52%CC%16-Z%B4h%D1%A2%A52h%99-Z%B4h%D1%A2%A52h%99-Z%B4h%D1%A2EKe%98-Z%B4h%D1%A2EKe%D02%5B%B4h%D1%A2EKe%D02%5B%B4h%D1%A2E%8B%96%CA0%5B%B4h%D1%A2E%8B%96%CA%A0e%B6h%D1%A2E%8B%96%CA%A0e%B6h%D1%A2E%8B%16-%95a%B6h%D1%A2E%8B%16-%95A%CBl%D1%A2E%8B%16-%95A%CBl%D1%A2E%8B%16-Z*%C3l%D1%A2E%8B%16-Z*%83%96%D9%A2E%8B%16-Z*%83%96%D9%A2E%8B%16-Z%B4T%86%D9%A2E%8B%16-Z%B4T%06-%B3E%8B%16-Z%B4T%06-%B3E%8B%16-Z%B4h%A9%0C%B3E%8B%16-Z%B4h%A9%0CZf%8B%16-Z%B4h%A9%0CZf%8B%16-Z%B4h%D1R%19f%8B%16-Z%B4h%D1R%19%B4%CC%16-Z%B4h%D1R%19%B4%CC%16-Z%B4h%D1%A2%A52%CC%16-Z%B4h%D1%A2%A52h%99-Z%B4h%D1%A2%A52h%99-Z%B4h%D1%A2EKe%98-Z%B4h%D1%A2EKe%D02%5B%B4h%D1%A2EKe%D02%5B%B4h%D1%A2E%8B%96%CA0%5B%B4h%D1%A2E%8B%96%CA%A0e%B6h%D1%A2E%8B%96%CA%A0e%B6h%D1%A2E%8B%16-%95a%B6h%D1%A2E%8B%16-%95A%CBl%D1%A2E%8B%16-%95A%CBl%D1%A2E%8B%16-Z*%C3l%D1%A2E%8B%16-Z*%83%96%D9%A2E%8B%16-Z*%83%96%D9%A2E%8B%16-Z%B4T%86%D9%A2E%8B%16-Z%B4T%06-%B3E%8B%16-Z%B4%AE%A4%F5%25%C0%00%DE%BF%5C'%0F%DA%B8q%00%00%00%00IEND%AEB%60%82") repeat-y !important;
    border-left: 1px solid #BBBBBB !important;
    border-right: 1px solid #000000 !important;
    border-bottom: 1px dashed #BBBBBB !important;
}

.overflowRulerX &gt; .firebugRulerV {
    left: 0 !important;
}

.overflowRulerY &gt; .firebugRulerH {
    top: 0 !important;
}

/* * * * * * * * * * * * * * * * * * * * * * * * * * * * * * * * * * * * * * * * * * * * * * * * */
.fbProxyElement {
    position: fixed !important;
    pointer-events: auto !important;
}
</style></svg>